<svg width="36" height="36" viewBox="0 0 36 36" fill="none" xmlns="http://www.w3.org/2000/svg">
<path d="M12.7448 0.375C14.7956 0.375 16.5729 2.15234 16.5729 4.20312V31.5469C16.5729 33.666 14.7956 35.375 12.7448 35.375C10.7624 35.375 9.12177 33.9395 8.91669 31.957C8.57489 32.0938 8.16473 32.0938 7.82294 32.0938C5.362 32.0938 3.44794 30.1797 3.44794 27.7188C3.44794 27.2402 3.5163 26.7617 3.65302 26.2832C1.60223 25.5312 0.166687 23.5488 0.166687 21.1562C0.166687 19.0371 1.39716 17.123 3.24286 16.2344C2.69598 15.4824 2.35419 14.5254 2.35419 13.5C2.35419 11.4492 3.78973 9.67188 5.77216 9.26172C5.63544 8.85156 5.63544 8.44141 5.63544 8.03125C5.63544 6.04883 7.00262 4.27148 8.91669 3.79297C9.12177 1.87891 10.7624 0.375 12.7448 0.375ZM26.3483 3.79297C28.2624 4.27148 29.6979 6.04883 29.6979 8.03125C29.6979 8.44141 29.6296 8.85156 29.4929 9.26172C31.4753 9.67188 32.9792 11.4492 32.9792 13.5C32.9792 14.5254 32.569 15.4824 32.0222 16.2344C33.8679 17.123 35.1667 19.0371 35.1667 21.1562C35.1667 23.5488 33.6628 25.5312 31.612 26.2832C31.7487 26.7617 31.8854 27.2402 31.8854 27.7188C31.8854 30.1797 29.903 32.0938 27.5104 32.0938C27.1003 32.0938 26.6901 32.0938 26.3483 31.957C26.1432 33.9395 24.5026 35.375 22.5886 35.375C20.4694 35.375 18.7604 33.666 18.7604 31.5469V4.20312C18.7604 2.15234 20.4694 0.375 22.5886 0.375C24.5026 0.375 26.1432 1.87891 26.3483 3.79297Z" fill="#820263"/>
</svg>
