<svg width="44" height="36" viewBox="0 0 44 36" fill="none" xmlns="http://www.w3.org/2000/svg">
<path d="M28.5625 12.4062C28.5625 19.1055 22.1367 24.4375 14.3438 24.4375C11.6777 24.4375 9.28517 23.8906 7.16603 22.7969C5.45705 23.6855 3.26955 24.4375 0.603531 24.4375C0.398453 24.4375 0.193375 24.3691 0.125015 24.1641C0.0566559 23.959 0.0566559 23.7539 0.261734 23.6172C0.261734 23.5488 1.834 21.9082 2.92775 19.6523C1.15041 17.6016 0.125015 15.1406 0.125015 12.4062C0.125015 5.77539 6.48244 0.375 14.3438 0.375C22.1367 0.375 28.5625 5.77539 28.5625 12.4062ZM41.0723 30.7266C42.166 32.9141 43.6699 34.4863 43.6699 34.5547C43.8067 34.6914 43.875 34.8965 43.8067 35.1016C43.7383 35.3066 43.5332 35.375 43.3281 35.375C40.8672 35.375 38.7481 34.6914 37.0391 33.9395C35.1934 34.8281 33.0059 35.375 30.75 35.375C24.5293 35.375 19.4024 31.5469 17.9668 26.2832C25.2813 24.8477 30.75 19.1738 30.75 12.4062C30.75 12.0645 30.6817 11.7227 30.6817 11.3809C30.6817 11.3809 30.6817 11.3125 30.75 11.3125C37.9961 11.3125 43.875 16.7129 43.875 23.3438C43.875 26.1465 42.7813 28.6758 41.0723 30.7266Z" fill="#820263"/>
</svg>
