<svg width="36" height="32" viewBox="0 0 36 32" fill="none" xmlns="http://www.w3.org/2000/svg">
<path d="M5.20837 25.7188C5.20837 26.334 5.68689 26.8125 6.30212 26.8125H33.6459C34.808 26.8125 35.8334 27.8379 35.8334 29C35.8334 30.2305 34.808 31.1875 33.6459 31.1875H6.30212C3.22595 31.1875 0.833374 28.7949 0.833374 25.7188V2.75C0.833374 1.58789 1.79041 0.5625 3.02087 0.5625C4.18298 0.5625 5.20837 1.58789 5.20837 2.75V25.7188ZM24.2123 17.4473C23.392 18.3359 21.9564 18.3359 21.1361 17.4473L17.2396 13.5508L11.0873 19.6348C10.267 20.5234 8.83142 20.5234 8.01111 19.6348C7.12244 18.8145 7.12244 17.3789 8.01111 16.5586L15.6674 8.90234C16.4877 8.01367 17.9232 8.01367 18.7435 8.90234L22.7084 12.7988L29.8861 5.62109C30.7064 4.73242 32.142 4.73242 32.9623 5.62109C33.851 6.44141 33.851 7.87695 32.9623 8.69727L24.2123 17.4473Z" fill="#820263"/>
</svg>
