<svg width="36" height="36" viewBox="0 0 36 36" fill="none" xmlns="http://www.w3.org/2000/svg">
<path d="M25.2461 1.74219C26.9551 0.0332031 29.7578 0.0332031 31.4668 1.74219L34.1328 4.4082C35.8418 6.11719 35.8418 8.91992 34.1328 10.6289L30.8516 13.9102L21.9649 5.02344L25.2461 1.74219ZM29.2793 15.4824L13.3516 31.4102C12.668 32.0938 11.7793 32.6406 10.8223 32.9141L2.5508 35.3066C2.00392 35.5117 1.38869 35.375 0.978531 34.8965C0.500015 34.4863 0.363297 33.8711 0.500015 33.3242L2.96095 25.0527C3.23439 24.0957 3.78127 23.207 4.46486 22.5234L20.3926 6.5957L29.2793 15.4824Z" fill="#820263"/>
</svg>
