<svg width="18" height="19" viewBox="0 0 18 19" fill="none" xmlns="http://www.w3.org/2000/svg">
<path d="M15 0.75H2.5C1.09375 0.75 0 1.88281 0 3.25V15.75C0 17.1562 1.09375 18.25 2.5 18.25H15C16.3672 18.25 17.5 17.1562 17.5 15.75V3.25C17.5 1.88281 16.3672 0.75 15 0.75ZM13.7109 12.0781L13.2422 14.0312C13.2031 14.3438 12.9688 14.5 12.6562 14.5C7.73438 14.5 3.75 10.5156 3.75 5.59375C3.75 5.28125 3.94531 5.04688 4.21875 4.96875L6.17188 4.53906C6.44531 4.46094 6.75781 4.61719 6.875 4.89062L7.77344 7C7.89062 7.27344 7.8125 7.54688 7.61719 7.70312L6.5625 8.5625C7.22656 9.92969 8.32031 11.0234 9.6875 11.6875L10.5469 10.6328C10.7031 10.4375 10.9766 10.3594 11.25 10.4766L13.3594 11.375C13.6328 11.4922 13.7891 11.8047 13.7109 12.0781Z" fill="white"/>
</svg>
